<svg xmlns="http://www.w3.org/2000/svg" xmlns:xlink="http://www.w3.org/1999/xlink" preserveAspectRatio="xMidYMid" width="145" height="47" viewBox="0 0 145 47">
  <defs>
    <style>
      .cls-1 {
        fill: #fff;
        stroke: #ccc;
        stroke-linejoin: round;
        stroke-width: 1px;
      }

      .cls-1, .cls-2, .cls-3 {
        fill-rule: evenodd;
      }

      .cls-2 {
        fill: #515254;
        opacity: 0.5;
      }

      .cls-3 {
        fill: #49494a;
        opacity: 0.7;
      }
    </style>
  </defs>
  <g>
    <path d="M137.055,44.000 L7.869,44.000 C5.184,44.000 3.000,41.804 3.000,39.115 L3.000,7.595 C3.000,4.906 5.184,2.718 7.869,2.718 L137.055,2.718 C139.738,2.718 142.000,4.906 142.000,7.595 L142.000,39.115 C142.000,41.804 139.738,44.000 137.055,44.000 Z" class="cls-1"/>
    <path d="M33.541,23.136 C33.575,27.123 37.021,28.441 37.063,28.455 C37.042,28.547 36.523,30.357 35.231,32.194 C34.152,33.811 33.021,35.392 31.226,35.421 C29.481,35.461 28.895,34.392 26.894,34.392 C24.874,34.392 24.249,35.392 22.576,35.461 C20.867,35.525 19.560,33.735 18.442,32.132 C16.207,28.860 14.467,22.910 16.800,18.861 C17.930,16.876 19.992,15.597 22.195,15.563 C23.907,15.528 25.496,16.722 26.548,16.722 C27.580,16.722 29.544,15.294 31.570,15.507 C32.417,15.531 34.828,15.842 36.384,18.115 C36.258,18.191 33.511,19.810 33.541,23.136 ZM26.342,15.205 C26.150,13.707 26.892,12.113 27.721,11.140 C28.659,10.036 30.288,9.192 31.591,9.134 C31.762,10.692 31.146,12.226 30.246,13.354 C29.307,14.465 27.805,15.314 26.342,15.205 Z" class="cls-2"/>
    <path d="M130.337,31.381 L123.373,31.381 C123.373,31.748 123.424,32.103 123.528,32.445 C123.632,32.787 123.788,33.087 123.996,33.344 C124.203,33.600 124.466,33.805 124.784,33.958 C125.101,34.111 125.480,34.187 125.920,34.187 C126.531,34.187 127.023,34.056 127.395,33.793 C127.768,33.530 128.046,33.136 128.229,32.610 L130.209,32.610 C130.099,33.123 129.909,33.582 129.641,33.985 C129.372,34.389 129.048,34.728 128.669,35.003 C128.290,35.279 127.866,35.487 127.395,35.627 C126.925,35.767 126.433,35.838 125.920,35.838 C125.175,35.838 124.515,35.716 123.941,35.471 C123.366,35.227 122.881,34.884 122.484,34.444 C122.087,34.004 121.787,33.478 121.586,32.867 C121.384,32.255 121.283,31.583 121.283,30.849 C121.283,30.177 121.390,29.538 121.604,28.932 C121.818,28.327 122.123,27.795 122.520,27.337 C122.917,26.878 123.397,26.515 123.959,26.245 C124.521,25.977 125.156,25.842 125.865,25.842 C126.610,25.842 127.279,25.998 127.872,26.310 C128.464,26.621 128.956,27.034 129.347,27.548 C129.738,28.061 130.022,28.651 130.200,29.318 C130.377,29.984 130.422,30.672 130.337,31.381 ZM128.037,29.052 C127.921,28.746 127.762,28.480 127.560,28.254 C127.359,28.028 127.114,27.844 126.827,27.704 C126.540,27.563 126.219,27.493 125.865,27.493 C125.499,27.493 125.166,27.557 124.866,27.685 C124.567,27.814 124.310,27.991 124.097,28.217 C123.883,28.444 123.712,28.709 123.583,29.015 C123.455,29.321 123.385,29.651 123.373,30.005 L128.248,30.005 C128.223,29.675 128.153,29.357 128.037,29.052 ZM123.029,17.837 C123.093,18.055 123.196,18.248 123.339,18.415 C123.481,18.583 123.663,18.716 123.884,18.816 C124.105,18.916 124.365,18.966 124.665,18.966 C125.049,18.966 125.365,18.877 125.611,18.699 C125.857,18.520 126.019,18.249 126.097,17.885 L126.995,17.885 C126.874,18.506 126.607,18.973 126.193,19.287 C125.780,19.601 125.260,19.758 124.633,19.758 C124.191,19.758 123.808,19.686 123.483,19.544 C123.159,19.401 122.886,19.201 122.665,18.945 C122.444,18.688 122.279,18.381 122.168,18.024 C122.058,17.668 121.995,17.279 121.981,16.858 C121.981,16.438 122.045,16.052 122.174,15.703 C122.302,15.353 122.482,15.050 122.714,14.793 C122.945,14.537 123.220,14.337 123.537,14.194 C123.854,14.052 124.201,13.980 124.579,13.980 C125.071,13.980 125.479,14.082 125.803,14.285 C126.127,14.488 126.388,14.747 126.584,15.061 C126.780,15.375 126.915,15.717 126.990,16.088 C127.065,16.459 127.095,16.812 127.081,17.147 L122.943,17.147 C122.936,17.390 122.965,17.620 123.029,17.837 ZM126.119,16.345 C126.104,16.131 126.056,15.927 125.974,15.735 C125.892,15.542 125.782,15.376 125.643,15.237 C125.504,15.098 125.340,14.988 125.151,14.906 C124.962,14.824 124.754,14.783 124.526,14.783 C124.290,14.783 124.078,14.824 123.890,14.906 C123.701,14.988 123.538,15.100 123.403,15.243 C123.268,15.386 123.161,15.551 123.082,15.740 C123.004,15.929 122.958,16.131 122.943,16.345 L126.119,16.345 ZM120.275,27.823 C119.921,27.823 119.588,27.893 119.277,28.034 C118.965,28.174 118.693,28.382 118.461,28.657 C118.229,28.932 118.045,29.272 117.911,29.675 C117.777,30.079 117.710,30.544 117.710,31.069 L117.710,35.581 L115.620,35.581 L115.620,26.099 L117.581,26.099 L117.581,27.933 L117.618,27.933 C117.679,27.676 117.798,27.426 117.975,27.181 C118.152,26.936 118.366,26.713 118.617,26.511 C118.867,26.310 119.145,26.148 119.451,26.025 C119.756,25.903 120.067,25.842 120.385,25.842 C120.630,25.842 120.798,25.848 120.889,25.860 C120.981,25.873 121.075,25.885 121.173,25.897 L121.173,27.915 C121.027,27.890 120.877,27.869 120.724,27.850 C120.571,27.832 120.422,27.823 120.275,27.823 ZM120.003,15.895 C120.003,15.553 119.903,15.282 119.704,15.082 C119.504,14.883 119.230,14.783 118.881,14.783 C118.603,14.783 118.362,14.825 118.159,14.911 C117.956,14.997 117.787,15.118 117.651,15.275 C117.516,15.432 117.414,15.616 117.347,15.826 C117.279,16.036 117.245,16.266 117.245,16.516 L117.245,19.640 L116.336,19.640 L116.336,12.001 L117.245,12.001 L117.245,14.922 L117.267,14.922 C117.338,14.751 117.438,14.606 117.566,14.488 C117.694,14.371 117.838,14.274 117.999,14.200 C118.159,14.125 118.327,14.070 118.501,14.034 C118.676,13.998 118.845,13.980 119.009,13.980 C119.373,13.980 119.675,14.030 119.918,14.130 C120.160,14.230 120.356,14.369 120.506,14.547 C120.656,14.726 120.761,14.938 120.821,15.184 C120.882,15.430 120.912,15.703 120.912,16.002 L120.912,19.640 L120.003,19.640 L120.003,15.895 ZM114.033,19.592 C113.865,19.560 113.730,19.501 113.626,19.415 C113.523,19.330 113.446,19.209 113.397,19.052 C113.347,18.895 113.322,18.688 113.322,18.431 L113.322,14.911 L112.381,14.911 L112.381,14.109 L113.322,14.109 L113.322,12.450 L114.230,12.450 L114.230,14.109 L115.332,14.109 L115.332,14.911 L114.230,14.911 L114.230,18.345 C114.230,18.452 114.239,18.538 114.257,18.602 C114.275,18.666 114.309,18.716 114.359,18.752 C114.409,18.788 114.478,18.811 114.567,18.822 C114.656,18.832 114.772,18.838 114.915,18.838 L115.332,18.838 L115.332,19.640 L114.637,19.640 C114.402,19.640 114.200,19.624 114.033,19.592 ZM113.559,28.832 C113.772,29.443 113.879,30.109 113.879,30.831 C113.879,31.564 113.772,32.237 113.559,32.848 C113.345,33.460 113.033,33.985 112.624,34.426 C112.214,34.866 111.714,35.211 111.121,35.462 C110.528,35.712 109.853,35.838 109.096,35.838 C108.338,35.838 107.663,35.712 107.071,35.462 C106.478,35.211 105.977,34.866 105.568,34.426 C105.158,33.985 104.847,33.460 104.633,32.848 C104.419,32.237 104.313,31.564 104.313,30.831 C104.313,30.109 104.419,29.443 104.633,28.832 C104.847,28.220 105.158,27.694 105.568,27.254 C105.977,26.814 106.478,26.469 107.071,26.218 C107.663,25.967 108.338,25.842 109.096,25.842 C109.853,25.842 110.528,25.967 111.121,26.218 C111.714,26.469 112.214,26.814 112.624,27.254 C113.033,27.694 113.345,28.220 113.559,28.832 ZM111.634,29.620 C111.530,29.217 111.369,28.859 111.149,28.547 C110.929,28.235 110.647,27.982 110.306,27.786 C109.963,27.591 109.560,27.493 109.096,27.493 C108.632,27.493 108.228,27.591 107.886,27.786 C107.544,27.982 107.263,28.235 107.043,28.547 C106.823,28.859 106.661,29.217 106.558,29.620 C106.454,30.024 106.402,30.427 106.402,30.831 C106.402,31.247 106.454,31.653 106.558,32.050 C106.661,32.448 106.823,32.806 107.043,33.123 C107.263,33.442 107.544,33.698 107.886,33.894 C108.228,34.089 108.632,34.187 109.096,34.187 C109.560,34.187 109.963,34.089 110.306,33.894 C110.647,33.698 110.929,33.442 111.149,33.123 C111.369,32.806 111.530,32.448 111.634,32.050 C111.738,31.653 111.790,31.247 111.790,30.831 C111.790,30.427 111.738,30.024 111.634,29.620 ZM107.720,15.895 C107.720,15.553 107.620,15.282 107.420,15.082 C107.221,14.883 106.946,14.783 106.597,14.783 C106.319,14.783 106.079,14.825 105.876,14.911 C105.672,14.997 105.503,15.118 105.368,15.275 C105.232,15.432 105.131,15.616 105.063,15.826 C104.995,16.036 104.961,16.266 104.961,16.516 L104.961,19.640 L104.053,19.640 L104.053,14.109 L104.908,14.109 L104.908,14.986 L104.929,14.986 C105.307,14.316 105.906,13.980 106.725,13.980 C107.089,13.980 107.392,14.030 107.634,14.130 C107.876,14.230 108.073,14.369 108.222,14.547 C108.372,14.726 108.477,14.938 108.538,15.184 C108.598,15.430 108.628,15.703 108.628,16.002 L108.628,19.640 L107.720,19.640 L107.720,15.895 ZM101.894,35.673 C101.344,35.673 100.901,35.621 100.565,35.517 C100.229,35.413 99.966,35.260 99.777,35.058 C99.587,34.857 99.459,34.603 99.392,34.297 C99.325,33.992 99.285,33.643 99.273,33.252 L99.273,27.658 L97.697,27.658 L97.697,26.099 L99.273,26.099 L99.273,23.256 L101.362,23.256 L101.362,26.099 L103.250,26.099 L103.250,27.658 L101.362,27.658 L101.362,32.720 C101.362,32.940 101.371,33.130 101.390,33.288 C101.408,33.448 101.451,33.582 101.518,33.692 C101.585,33.802 101.686,33.885 101.820,33.940 C101.955,33.995 102.138,34.022 102.370,34.022 C102.517,34.022 102.663,34.019 102.810,34.013 C102.956,34.007 103.103,33.985 103.250,33.949 L103.250,35.563 C103.017,35.587 102.792,35.612 102.572,35.636 C102.352,35.661 102.125,35.673 101.894,35.673 ZM102.300,18.929 C102.071,19.189 101.792,19.392 101.460,19.538 C101.129,19.685 100.742,19.758 100.300,19.758 C99.866,19.758 99.481,19.685 99.146,19.538 C98.811,19.392 98.529,19.189 98.301,18.929 C98.073,18.668 97.902,18.363 97.788,18.014 C97.674,17.664 97.617,17.286 97.617,16.880 C97.617,16.473 97.674,16.093 97.788,15.740 C97.902,15.387 98.073,15.081 98.301,14.820 C98.529,14.560 98.811,14.355 99.146,14.205 C99.481,14.055 99.866,13.980 100.300,13.980 C100.742,13.980 101.129,14.055 101.460,14.205 C101.792,14.355 102.071,14.560 102.300,14.820 C102.528,15.081 102.699,15.387 102.813,15.740 C102.927,16.093 102.984,16.473 102.984,16.880 C102.984,17.286 102.927,17.664 102.813,18.014 C102.699,18.363 102.528,18.668 102.300,18.929 ZM101.888,15.986 C101.799,15.726 101.676,15.507 101.519,15.328 C101.362,15.150 101.179,15.015 100.969,14.922 C100.758,14.829 100.536,14.783 100.300,14.783 C100.065,14.783 99.842,14.829 99.632,14.922 C99.422,15.015 99.238,15.150 99.082,15.328 C98.925,15.507 98.802,15.726 98.713,15.986 C98.624,16.247 98.579,16.545 98.579,16.880 C98.579,17.215 98.624,17.513 98.713,17.773 C98.802,18.034 98.925,18.251 99.082,18.426 C99.238,18.601 99.422,18.734 99.632,18.827 C99.842,18.920 100.065,18.966 100.300,18.966 C100.536,18.966 100.758,18.920 100.969,18.827 C101.179,18.734 101.362,18.601 101.519,18.426 C101.676,18.251 101.799,18.034 101.888,17.773 C101.977,17.513 102.022,17.215 102.022,16.880 C102.022,16.545 101.977,16.247 101.888,15.986 ZM95.314,34.939 C94.825,35.269 94.269,35.511 93.646,35.664 C93.023,35.816 92.388,35.893 91.740,35.893 C90.995,35.893 90.292,35.801 89.633,35.618 C88.973,35.434 88.398,35.153 87.910,34.774 C87.421,34.395 87.030,33.909 86.737,33.316 C86.444,32.723 86.291,32.023 86.279,31.216 L88.570,31.216 C88.570,31.717 88.655,32.145 88.826,32.500 C88.997,32.855 89.235,33.145 89.541,33.371 C89.846,33.597 90.198,33.763 90.595,33.866 C90.992,33.970 91.422,34.022 91.887,34.022 C92.388,34.022 92.815,33.964 93.170,33.848 C93.524,33.732 93.811,33.582 94.031,33.399 C94.251,33.215 94.410,33.004 94.508,32.766 C94.605,32.527 94.654,32.286 94.654,32.041 C94.654,31.540 94.541,31.170 94.315,30.932 C94.089,30.693 93.842,30.525 93.573,30.427 C93.109,30.256 92.568,30.094 91.951,29.941 C91.334,29.788 90.573,29.590 89.669,29.345 C89.107,29.198 88.640,29.006 88.267,28.767 C87.894,28.529 87.598,28.263 87.378,27.970 C87.159,27.676 87.003,27.364 86.911,27.034 C86.819,26.704 86.774,26.368 86.774,26.025 C86.774,25.365 86.911,24.794 87.186,24.310 C87.461,23.828 87.824,23.427 88.276,23.109 C88.728,22.791 89.242,22.556 89.816,22.403 C90.390,22.250 90.971,22.174 91.557,22.174 C92.241,22.174 92.886,22.263 93.491,22.440 C94.095,22.617 94.627,22.883 95.085,23.238 C95.543,23.592 95.907,24.029 96.176,24.549 C96.444,25.069 96.579,25.671 96.579,26.356 L94.288,26.356 C94.227,25.512 93.940,24.916 93.426,24.567 C92.913,24.219 92.259,24.045 91.465,24.045 C91.197,24.045 90.922,24.072 90.641,24.127 C90.359,24.182 90.103,24.274 89.871,24.402 C89.639,24.531 89.446,24.705 89.294,24.925 C89.141,25.145 89.065,25.420 89.065,25.750 C89.065,26.215 89.208,26.579 89.495,26.842 C89.782,27.105 90.158,27.303 90.622,27.438 C90.671,27.450 90.863,27.502 91.200,27.594 C91.536,27.685 91.911,27.786 92.327,27.896 C92.742,28.006 93.148,28.113 93.546,28.217 C93.942,28.321 94.227,28.398 94.398,28.446 C94.825,28.581 95.198,28.765 95.516,28.997 C95.833,29.229 96.099,29.495 96.313,29.794 C96.527,30.094 96.686,30.415 96.789,30.757 C96.893,31.100 96.945,31.442 96.945,31.785 C96.945,32.518 96.795,33.145 96.496,33.664 C96.197,34.184 95.803,34.609 95.314,34.939 ZM92.635,18.891 L92.614,18.891 C92.464,19.198 92.229,19.419 91.908,19.554 C91.587,19.690 91.235,19.758 90.850,19.758 C90.422,19.758 90.050,19.679 89.733,19.522 C89.415,19.366 89.152,19.155 88.941,18.891 C88.731,18.627 88.573,18.321 88.466,17.971 C88.359,17.622 88.305,17.251 88.305,16.858 C88.305,16.466 88.357,16.095 88.460,15.746 C88.564,15.396 88.720,15.091 88.931,14.831 C89.141,14.571 89.405,14.364 89.722,14.210 C90.039,14.057 90.408,13.980 90.828,13.980 C90.971,13.980 91.124,13.995 91.288,14.023 C91.452,14.052 91.616,14.100 91.780,14.167 C91.944,14.235 92.099,14.324 92.245,14.435 C92.391,14.546 92.514,14.683 92.614,14.847 L92.635,14.847 L92.635,12.001 L93.544,12.001 L93.544,19.640 L92.635,19.640 L92.635,18.891 ZM92.571,16.093 C92.507,15.840 92.405,15.617 92.266,15.425 C92.127,15.232 91.947,15.077 91.726,14.959 C91.505,14.842 91.238,14.783 90.925,14.783 C90.618,14.783 90.358,14.843 90.144,14.965 C89.930,15.086 89.759,15.246 89.631,15.446 C89.503,15.646 89.410,15.874 89.353,16.131 C89.296,16.388 89.267,16.652 89.267,16.922 C89.267,17.179 89.301,17.431 89.369,17.677 C89.437,17.923 89.540,18.142 89.679,18.335 C89.818,18.527 89.996,18.681 90.214,18.795 C90.431,18.909 90.686,18.966 90.978,18.966 C91.284,18.966 91.545,18.905 91.758,18.784 C91.972,18.663 92.147,18.504 92.282,18.308 C92.418,18.112 92.516,17.889 92.576,17.639 C92.637,17.390 92.667,17.136 92.667,16.880 C92.667,16.609 92.635,16.347 92.571,16.093 ZM87.108,19.758 C86.873,19.758 86.686,19.692 86.547,19.560 C86.408,19.428 86.338,19.212 86.338,18.913 C86.089,19.212 85.798,19.428 85.467,19.560 C85.136,19.692 84.777,19.758 84.393,19.758 C84.143,19.758 83.906,19.729 83.682,19.672 C83.457,19.615 83.263,19.526 83.099,19.405 C82.935,19.283 82.805,19.125 82.709,18.929 C82.613,18.732 82.564,18.495 82.564,18.217 C82.564,17.903 82.618,17.647 82.725,17.447 C82.832,17.247 82.972,17.085 83.147,16.960 C83.322,16.835 83.521,16.741 83.746,16.676 C83.970,16.612 84.200,16.559 84.435,16.516 C84.685,16.466 84.922,16.429 85.146,16.404 C85.371,16.379 85.569,16.343 85.740,16.297 C85.911,16.250 86.046,16.183 86.146,16.093 C86.246,16.004 86.296,15.874 86.296,15.703 C86.296,15.503 86.258,15.343 86.183,15.221 C86.108,15.100 86.012,15.007 85.895,14.943 C85.777,14.879 85.645,14.836 85.499,14.815 C85.353,14.793 85.209,14.783 85.066,14.783 C84.681,14.783 84.360,14.856 84.104,15.002 C83.847,15.148 83.708,15.425 83.687,15.831 L82.778,15.831 C82.792,15.489 82.864,15.200 82.992,14.965 C83.120,14.729 83.291,14.538 83.505,14.392 C83.719,14.246 83.963,14.141 84.238,14.077 C84.512,14.012 84.806,13.980 85.120,13.980 C85.369,13.980 85.617,13.998 85.863,14.034 C86.108,14.069 86.331,14.142 86.531,14.253 C86.730,14.363 86.891,14.518 87.012,14.717 C87.133,14.916 87.194,15.176 87.194,15.496 L87.194,18.336 C87.194,18.550 87.206,18.706 87.231,18.806 C87.256,18.905 87.340,18.955 87.482,18.955 C87.561,18.955 87.653,18.941 87.760,18.913 L87.760,19.619 C87.603,19.711 87.386,19.758 87.108,19.758 ZM86.285,16.783 C86.171,16.869 86.021,16.931 85.836,16.970 C85.650,17.009 85.456,17.041 85.253,17.066 C85.050,17.091 84.845,17.119 84.638,17.151 C84.432,17.183 84.246,17.234 84.083,17.305 C83.918,17.376 83.785,17.477 83.682,17.609 C83.578,17.740 83.527,17.919 83.527,18.146 C83.527,18.295 83.557,18.421 83.617,18.524 C83.678,18.627 83.756,18.711 83.853,18.774 C83.949,18.838 84.061,18.884 84.189,18.913 C84.318,18.941 84.453,18.955 84.596,18.955 C84.895,18.955 85.152,18.915 85.365,18.833 C85.579,18.751 85.754,18.648 85.889,18.524 C86.025,18.400 86.124,18.265 86.189,18.120 C86.253,17.974 86.285,17.837 86.285,17.710 L86.285,16.783 ZM81.111,18.929 C80.882,19.189 80.603,19.392 80.271,19.538 C79.940,19.685 79.553,19.758 79.111,19.758 C78.677,19.758 78.292,19.685 77.957,19.538 C77.622,19.392 77.340,19.189 77.112,18.929 C76.884,18.668 76.713,18.363 76.599,18.014 C76.485,17.664 76.428,17.286 76.428,16.880 C76.428,16.473 76.485,16.093 76.599,15.740 C76.713,15.387 76.884,15.081 77.112,14.820 C77.340,14.560 77.622,14.355 77.957,14.205 C78.292,14.055 78.677,13.980 79.111,13.980 C79.553,13.980 79.940,14.055 80.271,14.205 C80.603,14.355 80.882,14.560 81.111,14.820 C81.339,15.081 81.510,15.387 81.624,15.740 C81.738,16.093 81.795,16.473 81.795,16.880 C81.795,17.286 81.738,17.664 81.624,18.014 C81.510,18.363 81.339,18.668 81.111,18.929 ZM80.699,15.986 C80.610,15.726 80.487,15.507 80.330,15.328 C80.173,15.150 79.990,15.015 79.780,14.922 C79.569,14.829 79.347,14.783 79.111,14.783 C78.876,14.783 78.653,14.829 78.443,14.922 C78.233,15.015 78.049,15.150 77.893,15.328 C77.736,15.507 77.613,15.726 77.524,15.986 C77.435,16.247 77.390,16.545 77.390,16.880 C77.390,17.215 77.435,17.513 77.524,17.773 C77.613,18.034 77.736,18.251 77.893,18.426 C78.049,18.601 78.233,18.734 78.443,18.827 C78.653,18.920 78.876,18.966 79.111,18.966 C79.347,18.966 79.569,18.920 79.780,18.827 C79.990,18.734 80.173,18.601 80.330,18.426 C80.487,18.251 80.610,18.034 80.699,17.773 C80.788,17.513 80.833,17.215 80.833,16.880 C80.833,16.545 80.788,16.247 80.699,15.986 ZM77.436,26.236 C77.992,26.499 78.453,26.860 78.820,27.318 C79.186,27.777 79.461,28.312 79.644,28.923 C79.828,29.535 79.919,30.189 79.919,30.886 C79.919,31.522 79.837,32.139 79.672,32.738 C79.507,33.337 79.256,33.866 78.921,34.325 C78.584,34.783 78.160,35.150 77.647,35.425 C77.134,35.700 76.529,35.838 75.832,35.838 C75.527,35.838 75.221,35.810 74.916,35.755 C74.610,35.700 74.317,35.612 74.036,35.489 C73.755,35.367 73.496,35.211 73.257,35.022 C73.019,34.832 72.820,34.609 72.662,34.352 L72.625,34.352 L72.625,39.084 L70.536,39.084 L70.536,26.099 L72.515,26.099 L72.515,27.383 L72.552,27.383 C72.845,26.832 73.254,26.438 73.780,26.200 C74.305,25.961 74.873,25.842 75.484,25.842 C76.229,25.842 76.880,25.974 77.436,26.236 ZM75.209,27.493 C74.330,27.493 73.667,27.798 73.221,28.410 C72.775,29.021 72.552,29.834 72.552,30.849 C72.552,31.326 72.610,31.769 72.726,32.179 C72.842,32.589 73.016,32.940 73.248,33.233 C73.480,33.527 73.758,33.759 74.082,33.930 C74.406,34.102 74.781,34.187 75.209,34.187 C75.686,34.187 76.089,34.089 76.419,33.894 C76.749,33.698 77.021,33.444 77.234,33.133 C77.448,32.821 77.601,32.466 77.693,32.069 C77.784,31.672 77.830,31.265 77.830,30.849 C77.830,30.421 77.775,30.005 77.665,29.602 C77.555,29.198 77.390,28.841 77.170,28.529 C76.950,28.217 76.675,27.967 76.346,27.777 C76.016,27.588 75.637,27.493 75.209,27.493 ZM74.408,12.001 L75.316,12.001 L75.316,19.640 L74.408,19.640 L74.408,12.001 ZM72.077,15.895 C72.077,15.553 71.977,15.282 71.778,15.082 C71.578,14.883 71.303,14.783 70.954,14.783 C70.676,14.783 70.436,14.825 70.233,14.911 C70.030,14.997 69.860,15.118 69.725,15.275 C69.589,15.432 69.488,15.616 69.420,15.826 C69.352,16.036 69.319,16.266 69.319,16.516 L69.319,19.640 L68.410,19.640 L68.410,14.109 L69.265,14.109 L69.265,14.986 L69.287,14.986 C69.664,14.316 70.263,13.980 71.083,13.980 C71.446,13.980 71.749,14.030 71.991,14.130 C72.234,14.230 72.430,14.369 72.579,14.547 C72.729,14.726 72.834,14.938 72.895,15.184 C72.955,15.430 72.986,15.703 72.986,16.002 L72.986,19.640 L72.077,19.640 L72.077,15.895 ZM68.722,30.886 C68.722,31.522 68.639,32.139 68.474,32.738 C68.309,33.337 68.059,33.866 67.723,34.325 C67.387,34.783 66.962,35.150 66.449,35.425 C65.936,35.700 65.331,35.838 64.635,35.838 C64.329,35.838 64.023,35.810 63.718,35.755 C63.413,35.700 63.119,35.612 62.839,35.489 C62.557,35.367 62.298,35.211 62.060,35.022 C61.821,34.832 61.623,34.609 61.464,34.352 L61.427,34.352 L61.427,39.084 L59.338,39.084 L59.338,26.099 L61.317,26.099 L61.317,27.383 L61.354,27.383 C61.647,26.832 62.056,26.438 62.582,26.200 C63.107,25.961 63.675,25.842 64.286,25.842 C65.032,25.842 65.682,25.974 66.238,26.236 C66.794,26.499 67.255,26.860 67.622,27.318 C67.988,27.777 68.263,28.312 68.447,28.923 C68.630,29.535 68.722,30.189 68.722,30.886 ZM66.467,29.602 C66.357,29.198 66.192,28.841 65.972,28.529 C65.753,28.217 65.478,27.967 65.148,27.777 C64.818,27.588 64.439,27.493 64.011,27.493 C63.132,27.493 62.469,27.798 62.023,28.410 C61.577,29.021 61.354,29.834 61.354,30.849 C61.354,31.326 61.412,31.769 61.528,32.179 C61.644,32.589 61.818,32.940 62.050,33.233 C62.282,33.527 62.560,33.759 62.884,33.930 C63.208,34.102 63.584,34.187 64.011,34.187 C64.488,34.187 64.891,34.089 65.221,33.894 C65.551,33.698 65.823,33.444 66.037,33.133 C66.250,32.821 66.403,32.466 66.495,32.069 C66.586,31.672 66.632,31.265 66.632,30.849 C66.632,30.421 66.577,30.005 66.467,29.602 ZM64.818,19.640 L63.695,15.243 L63.674,15.243 L62.562,19.640 L61.579,19.640 L59.804,14.109 L60.809,14.109 L62.060,18.634 L62.081,18.634 L63.193,14.109 L64.187,14.109 L65.342,18.634 L65.363,18.634 L66.603,14.109 L67.544,14.109 L65.780,19.640 L64.818,19.640 ZM58.553,18.929 C58.325,19.189 58.045,19.392 57.714,19.538 C57.382,19.685 56.996,19.758 56.554,19.758 C56.119,19.758 55.734,19.685 55.399,19.538 C55.064,19.392 54.783,19.189 54.555,18.929 C54.327,18.668 54.155,18.363 54.042,18.014 C53.927,17.664 53.870,17.286 53.870,16.880 C53.870,16.473 53.927,16.093 54.042,15.740 C54.155,15.387 54.327,15.081 54.555,14.820 C54.783,14.560 55.064,14.355 55.399,14.205 C55.734,14.055 56.119,13.980 56.554,13.980 C56.996,13.980 57.382,14.055 57.714,14.205 C58.045,14.355 58.325,14.560 58.553,14.820 C58.781,15.081 58.952,15.387 59.066,15.740 C59.180,16.093 59.237,16.473 59.237,16.880 C59.237,17.286 59.180,17.664 59.066,18.014 C58.952,18.363 58.781,18.668 58.553,18.929 ZM58.142,15.986 C58.052,15.726 57.929,15.507 57.773,15.328 C57.616,15.150 57.432,15.015 57.222,14.922 C57.012,14.829 56.789,14.783 56.554,14.783 C56.319,14.783 56.096,14.829 55.886,14.922 C55.675,15.015 55.492,15.150 55.335,15.328 C55.178,15.507 55.055,15.726 54.966,15.986 C54.877,16.247 54.833,16.545 54.833,16.880 C54.833,17.215 54.877,17.513 54.966,17.773 C55.055,18.034 55.178,18.251 55.335,18.426 C55.492,18.601 55.675,18.734 55.886,18.827 C56.096,18.920 56.319,18.966 56.554,18.966 C56.789,18.966 57.012,18.920 57.222,18.827 C57.432,18.734 57.616,18.601 57.773,18.426 C57.929,18.251 58.052,18.034 58.142,17.773 C58.231,17.513 58.275,17.215 58.275,16.880 C58.275,16.545 58.231,16.247 58.142,15.986 ZM55.874,35.581 L54.646,32.115 L49.423,32.115 L48.195,35.581 L45.831,35.581 L50.853,22.486 L53.290,22.486 L58.330,35.581 L55.874,35.581 ZM52.081,24.741 L52.026,24.741 L50.046,30.372 L54.042,30.372 L52.081,24.741 ZM52.203,18.597 C51.903,18.936 51.522,19.194 51.059,19.373 C50.595,19.551 50.047,19.640 49.412,19.640 L46.793,19.640 L46.793,12.001 L49.412,12.001 C50.588,12.001 51.493,12.301 52.128,12.900 C52.762,13.499 53.079,14.412 53.079,15.639 C53.079,16.281 53.008,16.849 52.866,17.345 C52.723,17.841 52.502,18.258 52.203,18.597 ZM51.930,14.553 C51.841,14.193 51.695,13.886 51.492,13.633 C51.289,13.379 51.027,13.187 50.706,13.055 C50.385,12.923 49.990,12.857 49.519,12.857 L47.809,12.857 L47.809,18.784 L49.498,18.784 C49.612,18.784 49.755,18.775 49.926,18.757 C50.097,18.740 50.278,18.697 50.471,18.629 C50.663,18.561 50.854,18.463 51.043,18.335 C51.232,18.206 51.401,18.032 51.551,17.811 C51.700,17.590 51.823,17.313 51.919,16.981 C52.016,16.650 52.064,16.248 52.064,15.778 C52.064,15.321 52.019,14.913 51.930,14.553 Z" class="cls-3"/>
  </g>
</svg>
